P2
100 100
255
52 55 63 97 197 77 78 151 174 238 133 64 164 127 46 46 173 34 127 162 22 44 203 138 58 58 237 222 112 236 106 246 141 76 175 108 231 183 250 188 233 76 129 160 57 190 254 233 191 80 242 142 96 67 108 82 70 104 63 65 29 14 196 86 106 129 152 209 164 166 54 57 33 230 37 50 111 57 144 178 172 208 169 197 10 106 182 251 78 0 71 132 120 12 235 210 156 47 218 149 
75 72 88 13 171 111 237 34 26 48 92 60 82 210 18 35 159 113 195 108 33 67 44 39 83 102 191 113 241 39 172 60 68 164 104 114 228 116 26 211 252 104 29 180 197 36 113 81 21 90 139 159 125 75 62 198 222 146 172 202 111 144 228 188 1 186 182 83 49 0 152 190 104 121 147 36 42 87 187 185 183 43 114 60 76 250 215 236 233 15 243 91 176 180 195 155 169 225 2 201 
59 173 201 18 56 184 131 81 232 182 140 56 239 145 6 188 103 41 171 66 56 184 30 176 51 223 11 239 210 159 6 252 38 0 154 102 192 233 222 57 147 35 144 130 253 191 61 94 69 70 45 1 117 247 7 44 89 163 155 171 126 168 163 50 101 148 152 138 203 58 156 28 125 155 178 163 145 138 133 10 155 18 240 180 243 100 64 158 119 129 116 144 134 5 75 2 69 167 226 13 
4 174 144 219 85 192 163 42 141 81 50 31 74 225 32 58 124 115 222 221 213 75 60 56 231 142 203 151 52 10 123 146 177 72 184 217 176 188 109 22 0 111 115 81 251 17 45 247 62 41 132 176 210 24 192 44 33 113 229 143 71 51 44 15 100 145 2 131 213 129 20 140 115 168 110 45 24 190 71 43 216 216 236 241 68 157 47 100 204 238 2 51 92 151 166 163 6 149 17 63 
226 92 53 227 174 48 106 32 251 124 205 119 204 137 20 138 61 61 47 172 26 227 118 67 233 249 155 240 3 199 151 205 117 4 42 237 99 98 119 103 179 72 241 9 163 48 108 116 182 120 72 177 23 110 7 12 6 165 75 206 123 75 63 157 214 147 144 23 6 125 118 199 183 120 85 213 121 49 39 117 83 114 118 116 93 129 238 249 124 165 13 225 54 47 98 194 126 26 55 230 
84 85 220 123 34 141 93 97 244 102 61 150 100 144 155 19 247 185 26 5 109 238 229 50 135 227 209 245 215 114 37 125 137 179 16 149 116 133 151 90 12 233 14 60 240 173 225 151 122 177 153 75 33 199 126 114 62 194 253 171 139 194 205 115 50 122 4 181 204 73 106 88 117 179 237 77 43 174 114 7 211 249 8 187 228 83 58 81 155 212 72 52 149 136 250 163 61 24 222 153 
0 214 77 176 33 118 176 168 43 139 30 182 160 62 64 142 95 109 127 155 177 156 159 191 87 68 47 16 58 48 71 103 20 88 116 42 195 247 244 189 239 224 99 193 12 247 74 202 88 219 33 216 195 226 156 39 207 151 68 121 136 222 51 223 175 211 86 189 210 176 118 70 224 201 104 74 32 64 141 250 123 91 103 7 0 116 124 165 51 77 174 176 147 79 186 19 243 32 44 50 
90 145 241 21 140 36 184 254 220 88 242 8 70 176 95 39 136 250 234 182 202 197 63 192 33 249 223 14 219 244 33 119 115 95 104 200 121 228 46 84 145 29 59 51 200 7 122 227 205 11 78 206 166 178 99 235 207 238 254 162 173 166 122 123 101 17 200 61 54 173 126 73 108 35 35 200 228 146 112 150 248 21 179 139 224 196 50 241 175 191 114 136 77 214 62 236 134 136 106 224 
126 230 229 108 177 108 226 232 177 141 150 229 4 151 108 109 58 35 51 254 232 56 180 177 95 207 122 106 15 196 185 101 96 128 224 29 140 254 229 94 234 222 183 178 15 31 171 97 168 67 140 166 160 101 121 40 34 167 174 85 176 207 234 67 75 21 220 54 59 42 191 202 100 122 123 155 202 73 122 55 98 234 21 120 5 170 32 176 124 107 21 6 211 246 221 81 175 186 179 243 
29 157 48 77 27 81 218 28 222 194 111 29 180 252 3 211 13 62 242 190 216 31 53 203 122 243 79 30 239 212 245 234 67 136 198 40 181 5 121 214 189 133 142 207 190 93 17 140 53 243 253 189 189 239 75 139 245 107 161 140 14 84 240 251 172 35 177 85 202 97 22 154 218 122 97 41 72 221 22 155 15 60 31 68 234 154 95 168 247 41 225 239 9 204 148 80 185 81 182 53 
50 56 76 31 188 206 216 183 211 101 208 120 153 51 111 147 171 211 19 161 206 76 6 81 92 11 43 34 146 42 60 59 100 146 118 208 216 196 71 80 171 18 47 236 25 246 9 252 36 5 37 126 73 87 220 222 100 246 121 237 211 105 120 218 87 172 101 108 143 126 161 177 19 65 153 57 95 191 13 190 63 223 210 200 85 216 59 57 61 48 237 18 70 252 75 111 104 97 82 84 
251 206 216 202 96 227 138 1 200 113 8 252 75 87 191 173 112 161 193 155 236 61 250 162 10 231 209 36 99 182 231 28 95 167 73 187 71 196 193 106 240 55 17 71 85 50 78 56 243 81 156 59 21 233 199 161 5 54 45 121 12 8 39 188 226 156 119 101 26 156 186 78 65 234 233 106 4 200 181 218 228 55 131 170 142 58 194 24 191 138 251 109 74 98 69 139 242 35 192 182 
21 119 33 65 59 57 122 31 200 33 8 142 236 83 159 236 129 41 241 88 249 193 41 129 90 149 155 138 223 186 207 208 47 12 30 187 171 238 204 33 199 116 147 47 11 103 252 140 22 73 81 178 119 95 220 130 223 173 25 218 45 180 56 67 183 192 105 163 83 82 221 200 220 182 218 225 238 204 0 99 161 202 94 159 173 27 32 115 95 129 43 166 125 243 172 238 155 168 186 118 
158 200 111 207 139 223 15 139 176 199 224 54 175 254 2 46 105 0 98 199 132 127 23 32 156 129 50 101 244 37 152 33 162 50 147 201 41 244 244 194 144 94 93 223 102 18 149 134 229 238 93 57 120 178 65 24 58 127 19 205 37 207 150 213 148 122 94 52 82 244 170 3 202 122 159 34 188 154 226 105 210 76 94 211 243 67 52 21 5 136 240 253 10 144 181 140 220 158 196 117 
227 188 79 115 13 204 71 153 250 22 139 59 30 133 110 60 155 56 234 64 234 79 29 170 174 91 235 156 183 199 21 71 53 193 175 225 77 208 49 227 75 12 6 50 188 73 172 23 234 165 56 70 162 13 19 154 63 217 228 223 133 73 113 93 222 76 134 38 33 4 106 199 78 101 204 178 134 81 218 252 29 152 224 242 116 181 252 40 101 202 101 212 67 176 132 119 174 145 145 26 
223 173 197 74 52 169 36 215 44 74 194 175 2 144 193 151 142 44 23 35 96 212 228 241 26 204 132 95 95 185 52 194 198 45 66 20 88 24 206 68 119 183 41 153 52 207 190 29 126 47 223 39 223 61 147 184 132 137 49 70 241 87 153 67 229 44 46 143 64 9 154 15 141 81 131 131 181 43 87 251 81 38 246 235 5 208 5 84 3 219 65 220 188 175 116 212 169 157 158 0 
123 231 19 97 213 199 230 215 44 187 244 177 235 8 170 65 233 124 85 136 215 204 182 76 222 210 123 50 144 91 149 68 44 92 25 169 173 207 191 87 120 117 160 138 32 42 201 190 69 150 141 75 156 56 221 137 109 12 247 79 168 103 93 173 76 49 231 163 74 93 121 91 89 6 125 54 224 151 240 145 36 159 42 228 250 193 137 57 71 70 198 65 241 105 146 111 90 18 116 5 
244 1 46 137 108 210 242 246 56 242 240 30 241 253 105 244 34 70 8 165 235 145 40 167 54 134 76 74 43 159 237 73 81 138 20 90 40 231 27 176 5 27 232 224 52 127 246 81 35 62 249 19 163 156 143 76 84 68 197 18 15 111 114 163 4 5 87 27 227 60 42 180 77 187 34 158 221 247 244 183 111 190 152 40 193 182 141 65 149 184 227 70 126 25 226 104 176 247 37 125 
207 132 179 250 185 24 170 232 68 154 210 113 37 94 214 90 100 196 160 37 38 164 146 115 45 126 102 227 91 24 189 243 98 113 221 23 173 177 108 103 84 92 98 245 222 37 143 114 187 93 75 203 223 100 249 166 130 239 187 222 41 116 14 254 38 85 148 213 198 244 252 80 7 137 137 213 1 173 196 222 82 52 140 20 66 250 181 226 240 181 157 16 166 28 146 123 197 98 16 51 
145 35 84 9 99 0 4 13 165 62 206 213 76 91 172 95 91 75 77 104 86 235 213 20 52 5 140 144 216 99 241 233 40 226 47 28 142 185 105 110 47 75 129 92 158 111 218 215 85 82 107 58 48 52 147 145 230 200 31 189 9 208 209 99 49 110 173 133 96 61 215 225 166 97 180 11 223 100 31 110 132 88 72 239 33 209 105 216 241 56 113 103 250 134 38 247 86 177 87 169 
53 58 209 181 130 132 49 82 167 89 243 147 135 139 156 16 65 169 31 249 93 79 57 204 234 47 101 70 114 202 84 205 254 200 150 58 177 46 246 159 192 186 157 207 8 228 46 113 46 79 59 70 73 65 161 79 91 94 141 223 81 34 104 112 139 13 177 132 107 209 165 213 247 237 228 246 56 244 125 16 189 154 180 40 77 163 128 21 72 95 193 167 11 99 19 111 94 77 67 68 
240 213 234 84 6 130 210 176 250 33 55 97 28 57 128 250 78 191 14 70 248 125 180 253 192 127 102 243 79 162 67 2 88 45 212 102 83 254 39 66 113 167 113 5 253 207 161 175 16 143 39 162 131 164 49 217 49 31 186 132 35 107 4 43 114 167 44 209 23 247 186 216 60 204 161 36 60 3 176 21 36 28 98 147 234 165 238 68 62 233 200 170 39 204 65 41 215 182 221 72 
47 202 7 35 213 181 229 31 183 91 165 142 134 165 35 198 93 162 146 44 52 251 172 244 168 154 216 135 76 196 17 73 8 26 210 57 187 240 225 186 121 8 31 177 17 108 211 19 6 60 7 107 74 127 5 1 77 0 166 94 179 92 81 227 171 81 191 10 134 34 228 135 50 253 193 38 90 80 16 148 251 135 171 197 148 129 231 41 180 228 195 170 26 171 140 53 110 250 91 102 
66 5 192 62 61 250 58 216 147 134 80 89 112 98 6 108 57 151 59 42 189 60 70 3 225 199 209 28 67 17 76 183 111 246 239 201 16 130 55 89 124 195 32 65 30 89 39 119 137 114 64 56 9 246 11 221 108 177 223 62 153 114 117 230 200 20 195 131 174 217 134 143 168 49 45 227 108 54 132 99 52 235 114 223 240 157 39 98 109 225 208 61 78 253 116 116 96 214 80 220 
17 213 139 116 203 139 163 194 199 239 124 162 97 112 5 226 16 47 205 76 170 184 68 49 19 108 151 190 119 221 219 106 107 21 49 34 210 147 59 77 148 97 235 21 134 42 75 248 45 117 79 249 230 132 98 70 212 151 106 145 76 51 231 183 88 244 215 198 185 0 149 194 193 200 207 209 187 96 83 78 60 192 19 30 177 5 140 2 46 124 124 152 236 234 108 38 173 106 39 225 
148 205 70 220 213 149 47 2 199 14 45 116 70 28 22 120 48 149 43 237 93 134 147 122 61 206 227 83 89 19 153 154 144 144 113 244 152 171 128 53 4 87 68 19 90 240 45 127 145 190 243 6 6 27 213 25 192 26 169 86 160 154 91 75 50 100 49 93 61 10 79 169 125 9 7 125 225 20 38 122 244 138 170 254 2 186 179 152 226 20 186 198 117 22 219 104 87 30 172 33 
105 107 127 110 203 33 3 3 153 208 83 37 34 98 164 112 135 177 178 217 173 217 47 245 167 42 142 209 177 130 168 250 92 8 141 188 118 15 250 254 124 74 30 81 194 70 205 225 82 192 157 121 119 135 229 226 114 38 236 125 126 45 105 249 134 52 180 188 142 244 234 142 187 154 37 120 81 233 243 79 139 215 47 139 197 182 19 82 63 88 26 51 218 132 146 23 80 227 134 110 
125 216 173 88 173 136 61 238 223 233 182 200 224 117 210 144 77 235 53 107 156 22 72 107 148 133 52 131 198 200 109 7 201 229 125 179 95 196 205 220 175 25 117 170 89 40 189 113 130 207 240 5 221 209 80 180 254 63 7 75 236 98 13 192 72 219 124 99 119 121 112 66 246 50 220 81 65 247 193 131 147 231 251 197 53 163 131 37 95 90 203 222 168 223 243 17 48 76 174 227 
137 233 64 67 21 203 130 209 228 238 212 155 134 189 81 2 106 132 14 28 46 128 15 39 51 141 164 205 116 54 200 111 74 219 254 199 4 89 125 197 19 33 179 145 43 106 107 172 22 240 145 70 170 107 220 94 179 189 59 169 6 52 244 121 113 233 72 202 10 179 232 219 117 59 142 2 166 213 103 172 186 124 219 181 7 117 7 24 220 152 8 127 82 41 27 193 195 145 68 217 
106 242 131 42 27 36 128 225 178 5 7 85 212 53 193 237 120 224 22 36 81 153 129 138 215 128 139 144 104 82 144 55 159 193 14 25 70 89 169 37 90 116 19 116 172 235 177 234 128 172 102 196 90 25 86 155 88 17 92 19 0 132 20 56 71 230 228 238 35 59 26 229 16 127 168 113 59 3 45 159 57 85 90 138 169 0 20 202 123 120 123 119 102 195 226 27 210 129 193 126 
155 50 208 248 245 167 192 216 212 80 218 7 131 71 248 95 233 26 26 90 74 42 205 150 121 58 54 250 146 169 110 114 213 170 11 244 229 123 45 112 179 121 22 60 176 59 155 45 221 139 8 166 100 238 150 126 230 78 186 56 232 116 85 51 26 191 212 184 142 12 215 121 28 116 165 194 196 180 107 188 41 64 212 195 151 193 220 179 26 81 205 228 43 140 139 40 65 113 210 134 
212 254 133 157 227 95 78 162 127 204 230 41 158 5 234 107 186 125 239 42 247 140 234 117 134 134 26 3 238 83 64 31 220 51 233 57 176 243 83 217 226 221 223 146 5 126 4 148 103 181 243 179 111 183 155 122 82 189 184 18 70 123 40 73 20 46 60 196 19 153 225 209 235 172 157 146 99 236 133 120 183 86 177 58 182 199 72 9 59 165 227 225 23 196 34 122 196 62 18 216 
76 29 163 66 249 156 157 18 123 111 145 37 113 184 29 47 115 134 243 20 67 196 75 243 236 93 215 167 251 251 93 161 26 254 70 2 223 161 209 198 31 114 13 162 120 224 42 150 106 239 200 178 155 154 175 31 106 78 244 221 94 40 128 151 20 224 1 74 194 251 141 63 249 41 31 247 218 231 149 50 37 215 72 135 180 204 39 15 69 235 207 127 12 116 213 40 79 198 162 176 
33 211 210 254 231 18 20 87 229 70 236 30 201 118 207 221 30 31 182 215 174 89 213 227 194 71 69 164 44 111 130 223 193 94 223 240 168 73 71 8 83 28 197 194 81 242 245 183 97 16 3 211 55 201 138 174 174 196 207 1 21 178 110 73 151 91 111 79 177 157 245 107 160 138 49 250 28 253 176 115 120 194 45 193 130 217 200 253 125 176 181 97 123 116 248 12 138 159 84 202 
59 49 196 153 225 89 54 154 104 23 108 5 87 247 162 156 234 66 74 36 115 186 123 175 233 23 223 239 27 176 141 129 52 40 141 23 73 14 26 156 50 83 243 30 47 22 15 118 188 200 26 240 100 30 69 233 252 187 113 143 136 186 117 201 88 209 247 70 66 251 187 88 147 192 192 137 65 97 253 124 54 131 189 117 14 217 209 71 200 25 92 44 105 93 75 97 33 78 64 19 
72 71 109 164 119 223 155 5 32 83 20 70 243 152 23 9 136 18 1 2 16 177 235 51 26 157 254 102 40 55 144 129 254 249 16 29 101 101 157 228 188 179 184 53 220 250 220 35 229 117 50 50 243 48 183 192 38 12 118 4 235 69 45 248 249 63 168 22 243 45 137 232 189 198 133 8 122 215 233 105 122 184 58 74 164 31 176 241 215 9 183 248 103 96 79 150 5 107 100 233 
237 78 174 171 68 173 110 43 149 217 224 194 140 185 254 253 34 165 233 240 240 215 226 1 114 234 6 243 145 186 125 246 196 54 75 215 65 99 55 168 17 2 184 127 191 43 146 211 146 164 96 88 1 223 224 200 131 172 131 156 58 220 213 187 206 79 91 236 88 189 202 149 48 163 227 215 71 208 64 55 217 52 74 250 182 180 165 107 206 185 176 240 153 248 92 38 4 104 77 200 
221 61 142 173 16 97 31 183 45 142 81 109 185 41 181 17 133 29 59 114 39 61 242 180 227 101 118 15 210 198 213 93 50 63 160 146 116 230 145 211 84 253 184 143 51 97 225 117 228 88 147 163 235 33 23 130 134 74 6 196 100 154 38 69 27 194 223 238 210 33 182 188 3 146 218 161 221 131 113 209 187 131 18 71 174 52 79 81 138 62 34 28 213 211 77 32 43 53 132 238 
220 174 117 253 247 44 152 126 199 224 44 45 136 99 3 1 70 128 48 166 210 140 1 222 226 2 125 166 5 161 7 183 103 54 159 20 144 96 124 54 12 165 135 126 233 212 163 60 88 19 177 127 81 121 101 252 226 71 94 52 212 250 22 30 57 230 254 2 46 145 19 239 61 71 188 94 104 56 231 112 18 184 50 116 199 134 107 20 244 152 25 174 148 49 236 92 142 199 17 31 
185 243 49 54 214 28 157 49 217 210 31 159 42 117 153 77 152 154 13 22 152 218 12 6 121 15 205 131 51 250 29 45 97 189 253 167 72 2 88 199 143 191 28 152 55 71 51 230 1 242 88 217 134 45 223 153 68 76 252 60 46 11 242 38 124 198 254 84 29 203 27 190 120 16 29 148 162 249 212 237 249 85 190 19 54 21 28 12 34 197 199 195 114 229 173 139 47 196 4 154 
195 194 83 52 229 14 152 43 243 181 25 93 162 140 190 68 181 203 214 132 19 129 93 120 73 16 210 56 88 219 0 119 193 225 181 73 159 166 231 125 155 236 2 56 102 108 75 23 224 243 22 53 110 155 177 62 244 169 82 82 189 133 198 53 208 18 126 0 79 252 95 26 53 66 63 159 185 201 231 233 179 140 219 111 112 180 137 18 185 92 40 162 34 120 64 118 187 94 233 208 
62 42 27 200 179 131 78 181 21 7 225 22 240 106 139 31 147 178 113 216 27 45 175 171 187 120 158 196 196 134 127 127 189 240 220 163 147 153 43 250 113 131 216 41 106 95 251 189 228 152 14 142 126 89 69 102 141 125 30 116 196 48 194 185 225 77 115 225 233 130 142 136 182 167 225 26 144 212 212 243 71 117 157 67 226 177 99 167 86 242 233 144 35 26 118 50 220 252 157 90 
0 251 45 22 195 232 98 217 132 70 58 89 169 232 54 225 227 209 198 43 105 180 118 109 180 225 237 39 170 35 57 145 78 31 33 18 11 200 76 163 85 44 165 44 235 163 193 79 181 177 2 163 210 82 226 12 175 73 91 53 3 181 171 153 90 254 183 244 214 59 19 18 132 80 33 197 186 191 211 89 222 216 144 112 186 122 238 65 116 68 112 87 164 143 134 34 224 182 207 248 
254 135 14 119 190 117 222 47 238 120 103 230 156 20 114 13 53 10 114 37 3 94 15 175 61 60 48 132 240 104 46 99 139 202 20 172 0 91 108 233 152 59 162 1 152 182 97 91 247 35 219 64 106 9 254 183 127 169 107 187 82 230 243 136 98 185 69 122 157 11 13 198 106 81 195 161 26 56 51 44 172 12 221 88 7 233 125 90 99 143 37 19 240 152 15 224 152 85 233 110 
0 105 63 123 183 253 174 13 234 242 180 39 199 44 186 29 236 188 21 68 148 82 214 69 218 60 11 146 199 240 104 32 165 17 205 74 63 114 86 26 98 87 103 164 151 127 140 231 139 234 130 22 204 152 159 35 17 181 81 186 228 177 225 84 117 100 114 254 57 184 222 71 81 181 75 125 161 70 253 190 53 96 232 246 140 245 128 206 157 53 231 179 244 212 111 222 203 159 221 78 
146 173 223 127 71 90 225 237 91 102 111 219 77 123 57 185 26 131 142 35 208 17 7 213 128 7 41 8 173 227 185 125 136 130 148 142 129 46 171 10 247 32 148 248 183 79 145 90 90 54 146 220 116 113 61 20 168 16 12 191 92 208 113 175 139 121 151 183 96 246 61 134 84 177 136 126 103 2 34 189 202 206 86 154 214 202 58 118 59 237 218 59 61 131 119 207 24 82 157 220 
3 225 156 239 208 125 155 86 176 252 240 215 213 121 2 155 137 53 233 77 13 71 99 244 184 170 53 211 202 243 100 31 90 215 40 249 191 159 46 99 246 144 145 148 248 23 239 133 205 76 27 142 180 179 73 67 123 49 95 169 48 227 67 178 243 239 15 23 109 106 6 175 198 92 69 212 243 207 243 219 120 224 205 128 237 119 171 161 195 96 13 118 236 31 182 149 33 181 226 11 
32 179 26 213 137 220 244 51 199 218 30 218 214 249 46 113 239 213 85 38 115 4 185 149 229 91 164 234 127 21 184 151 77 78 198 196 139 93 187 90 43 251 197 126 167 79 81 74 67 217 193 153 211 89 130 179 244 252 178 37 249 137 242 62 0 31 180 244 183 83 218 250 240 242 237 106 215 93 244 215 19 210 201 24 236 227 106 184 73 22 221 254 40 82 57 166 1 115 185 204 
229 203 116 83 71 26 210 21 32 3 3 87 103 191 122 74 42 240 42 113 171 158 24 236 138 15 6 238 29 232 4 187 145 81 190 212 116 77 59 157 224 254 218 173 132 126 33 132 30 235 80 69 108 251 226 96 130 35 114 66 89 199 160 131 134 1 40 238 180 0 74 140 53 50 248 203 174 245 45 151 143 238 164 135 17 152 68 155 34 51 241 83 127 61 139 44 147 139 48 199 
149 28 92 204 198 115 159 174 209 24 90 91 173 74 213 117 202 54 170 194 142 37 223 243 36 66 188 141 222 166 156 127 214 245 8 68 135 159 44 253 1 199 60 124 193 0 84 189 179 112 179 109 178 28 205 133 13 218 194 27 102 232 235 211 123 113 40 91 29 107 136 63 78 106 212 223 185 249 30 197 245 84 29 194 182 173 230 86 245 174 244 104 201 250 38 61 33 76 200 1 
208 120 142 22 41 99 245 212 223 210 79 114 13 184 242 19 185 196 204 2 25 232 80 144 74 2 148 31 199 13 50 189 53 239 8 141 9 183 126 91 146 82 101 213 109 136 190 54 240 181 72 7 141 75 185 23 42 23 172 41 183 238 143 132 57 123 122 185 126 250 219 154 165 178 34 211 162 147 183 214 97 27 191 226 189 141 85 120 89 59 148 29 24 37 46 181 92 173 26 42 
239 194 167 67 6 96 203 119 177 21 3 170 30 209 130 110 70 206 58 141 213 170 53 171 97 123 208 235 205 115 52 118 61 198 23 26 186 57 61 63 14 222 173 202 94 180 237 12 31 226 52 22 161 223 12 92 136 91 112 202 59 234 92 78 220 20 42 73 146 251 115 156 254 231 149 21 30 136 1 129 60 136 119 46 6 85 120 152 126 108 62 130 16 75 200 186 234 206 4 184 
42 223 187 88 245 243 86 2 42 98 148 142 108 50 170 227 109 87 244 35 202 53 34 177 157 40 175 242 198 227 88 219 52 79 115 70 248 54 114 222 50 57 86 97 233 140 100 89 207 63 201 95 123 63 123 202 32 174 127 124 131 95 221 242 111 223 174 229 184 47 249 63 134 63 81 22 186 198 17 229 63 220 67 223 89 95 145 72 71 137 218 15 16 111 67 106 40 240 138 57 
194 124 216 132 200 73 251 144 46 170 128 212 77 184 206 222 176 166 23 205 119 132 99 42 130 111 53 56 169 123 193 83 88 210 107 79 188 157 222 24 63 177 190 114 63 51 31 198 27 169 61 13 177 247 147 124 76 227 195 19 180 59 102 55 95 18 17 17 17 235 92 25 191 63 169 158 68 81 186 220 45 164 90 42 69 28 247 99 85 227 121 188 216 239 51 12 205 46 66 192 
31 195 85 219 235 13 64 102 103 27 131 103 4 222 119 93 100 132 123 105 39 48 199 150 115 93 249 97 176 119 211 32 30 127 132 99 103 205 251 41 133 49 213 123 53 77 22 5 163 71 116 216 34 173 191 105 161 226 73 79 29 29 194 176 96 38 53 10 246 69 6 99 43 39 242 182 228 188 244 42 98 162 171 16 102 57 215 137 49 54 34 35 158 211 45 164 1 229 14 1 
87 10 114 191 120 163 100 88 106 200 114 180 249 162 66 98 13 49 233 160 207 175 175 208 75 138 223 11 88 164 79 169 46 116 48 9 20 178 101 52 150 194 85 167 115 106 113 246 217 80 92 17 47 21 85 27 58 78 136 13 66 252 72 110 102 134 204 154 168 233 158 34 113 65 228 74 233 197 30 126 98 228 160 145 49 17 57 105 135 226 191 188 125 209 48 127 228 199 134 151 
112 146 129 239 225 153 17 150 238 125 50 110 157 5 247 32 72 167 156 121 85 253 57 27 106 222 166 114 182 195 169 46 168 117 176 57 193 23 102 196 86 229 226 189 253 88 60 104 179 60 111 87 129 217 31 66 37 43 34 87 65 248 192 208 145 101 36 204 252 107 3 167 141 54 215 209 33 61 102 193 154 26 184 169 100 9 75 79 82 248 85 6 136 113 208 81 120 236 79 202 
60 21 32 137 33 157 69 82 54 225 46 51 252 39 104 214 217 195 199 28 216 136 247 0 49 214 166 177 231 198 59 188 79 30 93 51 233 34 99 188 250 43 245 72 166 206 156 100 142 200 91 107 58 250 140 5 151 67 10 98 147 162 66 34 179 95 176 100 249 139 99 211 135 179 131 210 190 248 208 38 218 140 197 17 217 244 118 238 60 197 11 127 52 103 206 36 69 36 128 67 
157 9 97 4 86 169 101 203 68 42 129 186 214 150 141 214 223 75 144 214 50 154 216 232 143 101 123 252 247 111 239 139 235 18 98 44 131 236 153 59 3 136 201 9 193 73 41 15 100 225 167 68 54 68 10 62 13 21 141 237 143 86 99 118 192 78 107 44 173 208 120 48 200 230 47 99 80 60 43 9 127 53 121 135 148 117 157 182 150 220 187 78 206 40 54 19 94 230 164 147 
101 71 242 147 55 181 232 239 57 115 32 83 249 122 172 73 202 152 220 179 23 100 1 194 60 112 140 72 210 71 90 247 126 110 229 28 210 20 69 147 194 162 174 77 215 31 27 232 225 116 212 158 238 85 118 51 150 173 84 214 15 89 143 189 242 247 105 138 210 3 178 26 251 8 207 239 102 58 21 88 179 41 40 66 105 211 12 102 225 148 76 121 210 249 22 132 109 166 221 104 
158 44 78 128 198 251 176 85 242 181 252 121 99 87 74 93 224 42 46 102 194 194 77 196 61 52 98 108 129 180 146 54 125 103 165 26 92 33 195 142 211 33 148 88 80 237 167 91 138 97 110 23 100 116 168 70 253 8 163 19 88 16 186 19 25 156 149 180 5 169 125 225 204 175 39 130 235 200 0 237 18 85 206 34 129 50 12 184 129 151 142 254 23 152 123 65 97 96 72 250 
240 54 155 140 171 175 231 142 133 63 136 75 35 120 69 83 197 147 247 5 161 207 30 102 215 70 231 132 179 35 242 250 47 218 108 199 129 197 54 236 25 0 129 117 64 199 123 44 0 211 25 138 146 105 62 157 237 159 51 242 217 99 97 147 240 200 241 13 233 57 67 79 203 102 118 235 66 1 157 252 98 119 82 64 100 117 25 174 190 254 161 224 23 198 77 63 221 74 119 25 
2 178 57 128 121 180 72 193 194 175 11 195 47 34 97 80 102 205 251 56 13 250 176 79 196 195 13 19 191 6 99 100 20 2 192 5 198 199 104 151 231 138 182 192 243 63 69 158 78 198 150 196 243 112 5 24 131 79 16 89 186 17 79 116 59 56 38 152 203 163 138 24 77 214 127 85 246 155 196 241 196 240 73 87 124 216 170 195 24 192 199 216 84 104 75 150 112 64 152 74 
180 50 53 172 84 145 50 193 88 98 236 26 210 56 100 102 167 5 106 200 67 174 182 169 79 48 49 230 49 210 154 74 48 81 241 3 117 99 73 38 15 94 129 186 33 231 76 101 42 238 196 112 167 48 134 122 101 83 236 81 242 12 129 147 157 136 222 186 128 228 40 159 189 91 185 107 157 138 237 179 107 100 49 110 211 24 6 198 144 215 144 79 168 213 173 28 233 123 58 174 
73 141 120 251 254 53 22 25 162 207 144 55 142 132 176 101 167 196 219 159 197 178 33 249 82 162 36 88 246 116 91 101 211 232 55 62 4 0 246 138 108 195 145 81 38 233 133 64 73 235 1 88 40 146 243 115 42 239 111 87 72 51 240 231 153 121 137 199 244 110 209 245 119 173 143 109 139 83 222 80 150 18 85 99 170 150 84 53 93 26 152 89 197 66 6 87 238 85 161 136 
3 192 22 191 224 157 85 103 225 146 55 28 252 15 41 234 11 224 4 125 98 210 4 4 56 190 191 112 113 131 123 124 154 70 199 89 4 167 35 144 168 252 86 26 101 78 101 61 84 208 178 18 233 151 172 103 196 171 130 134 206 75 191 224 88 237 112 218 206 44 246 15 245 128 9 98 27 179 1 134 77 214 0 139 169 13 225 67 251 183 143 7 199 222 172 150 65 157 140 180 
34 112 155 190 21 172 55 253 80 189 65 88 43 227 205 149 36 92 246 143 117 233 133 197 12 113 171 137 40 145 104 169 252 242 240 65 10 194 165 54 182 214 184 130 85 231 25 69 214 146 139 132 252 224 162 156 13 125 22 0 175 204 99 222 179 169 120 10 7 239 239 26 46 169 219 124 160 217 214 40 187 34 144 203 208 12 52 189 28 214 234 249 34 153 115 15 50 161 4 125 
124 241 15 85 3 198 211 191 0 217 161 196 85 86 151 177 36 116 189 66 228 74 130 170 80 12 75 153 123 7 202 192 94 155 183 145 60 101 221 3 87 244 184 42 208 195 88 126 195 100 53 52 98 44 109 137 238 93 50 29 252 207 42 56 14 175 86 100 119 23 61 146 28 169 63 210 4 175 111 155 143 15 44 168 119 125 99 102 36 111 168 144 53 163 59 220 70 67 203 105 
164 24 231 128 178 137 220 111 129 39 50 236 3 199 36 148 16 250 53 95 207 182 221 85 21 200 27 10 224 191 44 3 37 160 109 163 237 248 59 35 193 227 25 52 191 147 252 202 136 132 55 87 211 61 73 202 98 103 139 184 96 66 215 14 174 17 54 249 169 96 154 3 240 100 165 218 41 231 231 63 155 30 48 114 127 33 138 104 244 248 157 17 78 196 164 197 198 101 221 79 
111 117 164 188 55 132 160 190 234 209 107 156 69 98 60 160 148 229 3 237 51 240 192 30 110 80 254 195 170 91 209 109 221 204 72 208 196 184 15 64 114 250 20 224 232 46 196 13 34 15 226 196 209 38 107 13 89 212 195 150 159 158 72 129 106 30 209 91 165 122 210 136 28 85 28 59 236 194 101 53 112 108 96 59 193 102 206 138 169 197 250 201 92 251 246 235 194 49 154 91 
139 122 70 216 108 42 31 84 19 164 115 36 142 242 223 225 10 191 96 176 80 13 177 220 77 160 0 71 117 238 189 115 174 182 3 22 201 132 166 40 168 110 70 101 124 102 121 26 246 215 206 229 16 158 96 42 79 217 34 109 237 134 71 147 141 224 69 133 15 215 219 150 28 121 165 244 225 97 154 111 219 244 136 119 139 88 45 218 35 96 69 55 142 212 138 218 111 187 194 196 
183 98 217 17 34 249 254 90 243 32 63 104 160 34 96 247 173 204 75 136 203 113 155 109 26 137 1 230 153 241 79 33 1 241 231 219 108 78 20 49 149 252 51 35 249 103 67 179 75 221 105 248 21 237 179 127 166 128 202 8 250 62 132 133 140 131 191 45 65 14 42 246 173 68 183 225 243 207 68 74 88 67 217 17 96 189 6 253 77 117 50 139 243 0 127 224 158 137 139 239 
60 30 222 66 87 131 47 87 55 78 47 206 109 125 111 165 114 189 62 65 7 202 13 174 70 154 254 130 51 92 1 90 199 114 245 173 75 57 26 14 244 61 233 163 174 182 103 108 208 230 197 40 219 135 139 245 89 243 42 161 140 100 242 152 251 2 205 182 218 159 223 192 14 181 186 122 198 58 92 206 230 139 251 207 222 182 138 52 125 194 135 207 127 33 169 160 230 112 60 53 
173 104 175 100 18 37 17 56 254 179 54 33 215 237 63 146 76 75 71 43 200 200 54 219 211 193 181 197 5 227 129 251 204 30 221 40 200 20 188 61 178 197 221 44 100 150 189 164 84 218 121 144 218 145 42 202 134 142 158 192 167 178 16 191 162 226 238 224 192 156 109 168 93 63 55 161 158 101 229 237 182 129 20 92 220 194 205 162 85 204 101 174 213 25 8 74 198 147 173 47 
232 252 147 71 158 186 81 38 139 26 186 148 58 223 173 186 206 109 120 202 34 69 199 159 69 15 97 238 216 23 97 222 14 27 145 112 164 44 106 139 226 208 109 154 160 136 36 169 86 185 127 141 130 251 196 213 217 140 195 32 195 29 242 84 62 147 45 162 116 206 30 78 104 198 200 245 75 219 61 198 59 122 166 249 185 163 241 145 137 227 232 99 208 220 25 173 33 96 205 70 
105 165 180 21 167 165 82 36 77 204 188 227 15 250 178 31 79 230 84 139 138 151 232 249 87 10 134 180 8 155 112 48 71 54 193 240 37 101 109 89 152 197 106 204 62 63 135 20 71 36 121 215 28 2 225 95 221 162 250 44 108 116 42 225 185 136 201 183 126 134 189 170 76 120 75 124 12 234 115 138 216 197 36 111 87 158 170 190 166 41 183 21 25 74 78 63 94 220 233 99 
133 57 202 140 5 83 19 82 134 173 223 118 226 109 180 201 147 89 172 139 94 20 229 45 237 218 194 193 50 125 183 233 58 108 92 47 113 150 7 145 162 2 9 143 126 156 136 69 252 89 113 45 81 223 0 45 102 244 10 184 208 70 146 205 171 246 90 79 1 251 25 219 12 71 113 175 144 86 57 82 116 4 61 31 146 165 240 103 105 40 72 104 187 131 227 248 66 70 15 215 
34 210 209 151 47 109 6 53 155 51 171 108 140 114 199 47 212 5 52 180 135 149 116 151 24 190 129 68 203 217 61 28 120 89 68 12 79 129 164 119 88 66 191 100 183 54 235 124 70 252 63 209 77 77 76 14 185 123 235 1 83 136 20 174 38 20 43 70 225 95 227 101 3 160 53 79 0 197 190 16 134 110 175 48 170 58 78 66 131 181 226 72 101 151 121 182 118 173 155 17 
242 153 170 12 254 119 118 178 40 58 102 138 228 126 208 253 125 134 204 242 111 175 31 50 18 137 93 183 198 0 237 210 41 171 217 67 135 48 5 74 135 71 62 161 189 178 99 233 190 41 190 159 225 249 187 85 254 236 164 75 185 252 89 59 64 8 56 98 251 125 223 179 145 211 247 42 133 102 212 225 85 8 131 225 61 93 101 91 178 28 76 227 169 195 33 246 229 98 117 8 
82 201 222 96 17 111 236 207 16 17 62 66 227 44 130 77 149 128 183 132 189 59 245 168 225 240 160 51 61 126 89 90 184 56 108 122 203 64 102 243 129 122 228 233 186 97 107 191 101 215 14 180 41 107 36 225 94 1 229 185 57 141 84 249 247 57 189 81 187 186 169 155 231 64 102 125 194 170 161 244 73 175 214 9 86 143 49 101 169 231 11 170 233 179 164 144 75 52 161 117 
149 14 21 133 173 231 139 75 221 28 146 126 39 181 0 220 212 15 66 201 161 26 136 31 60 168 160 238 249 10 224 18 108 138 26 224 120 248 124 120 57 107 140 67 86 241 215 120 197 5 130 218 105 63 34 230 208 180 208 238 33 210 86 72 217 210 40 175 89 230 74 229 137 242 205 46 200 131 139 110 183 243 134 131 223 61 213 192 76 190 208 116 136 83 126 115 91 231 134 233 
232 130 85 209 14 42 142 202 210 115 97 218 131 149 140 129 196 58 168 19 11 232 104 229 64 251 99 130 188 81 92 248 157 227 168 178 205 156 97 236 120 199 210 195 106 82 235 220 141 115 210 196 145 49 183 85 57 235 209 35 239 53 66 67 67 169 164 174 191 87 233 52 226 12 88 0 239 75 96 60 148 94 76 169 81 251 93 130 105 216 208 24 79 15 104 194 237 127 78 218 
132 22 9 101 133 73 146 96 106 95 210 161 17 7 2 243 31 173 32 190 157 143 48 1 128 46 224 80 130 72 34 245 141 237 121 216 46 253 121 194 70 122 142 147 115 216 117 201 187 38 234 171 113 213 61 170 101 217 187 148 163 194 160 104 1 174 204 175 77 3 248 217 139 2 42 35 67 198 239 155 40 128 30 157 16 175 53 6 85 171 13 143 30 134 229 86 127 41 240 197 
126 65 254 207 21 156 253 124 15 190 252 50 12 163 44 13 155 69 188 135 57 192 196 195 165 202 21 124 202 164 216 149 50 60 179 197 31 82 135 240 39 160 174 23 123 165 41 137 160 108 181 220 95 33 245 136 21 227 251 171 137 191 82 246 23 226 231 72 235 188 1 51 179 49 161 42 54 164 164 90 11 7 188 174 192 26 107 203 189 118 162 252 187 136 157 117 244 49 31 11 
103 226 0 247 236 224 178 74 25 3 53 112 145 123 149 192 85 137 81 12 34 57 161 126 64 61 21 168 232 15 88 99 135 122 117 173 148 137 78 132 82 208 58 196 142 160 214 95 186 35 113 75 178 83 106 66 247 172 118 137 218 83 195 218 242 112 35 81 68 152 151 56 5 13 55 166 70 179 195 20 83 19 42 190 254 82 3 84 68 128 227 184 202 211 131 71 139 186 179 66 
89 182 101 224 81 2 7 252 53 174 15 37 49 73 105 182 76 171 136 113 66 105 202 191 194 247 190 233 45 151 190 171 143 102 0 158 4 103 14 43 152 61 97 5 42 1 168 227 143 70 224 182 253 91 237 31 202 57 220 25 120 67 5 153 225 128 140 206 101 121 105 54 35 49 168 39 254 145 249 56 107 132 115 136 121 101 37 232 86 83 36 60 173 193 42 241 252 249 63 0 
229 92 246 244 147 124 199 190 53 165 159 134 37 234 229 1 48 211 58 143 232 124 70 95 172 242 173 205 17 229 40 217 232 197 242 133 79 65 176 106 106 192 228 0 64 99 254 0 26 203 152 72 87 73 169 100 24 180 106 146 98 228 124 170 72 50 174 85 175 144 105 136 130 51 78 242 149 69 204 73 138 110 56 51 134 73 50 31 194 44 185 82 203 160 116 223 10 178 177 55 
70 143 206 21 24 151 133 87 34 9 239 82 82 79 178 29 94 247 85 193 181 4 206 220 105 63 243 251 62 246 41 41 119 165 161 158 51 192 212 91 162 22 145 76 237 27 97 141 64 30 47 66 134 94 220 165 0 25 128 41 158 252 48 234 111 248 134 40 199 15 226 185 193 105 46 227 237 129 123 80 103 54 151 225 128 49 77 163 12 2 214 168 77 196 81 63 45 248 99 104 
16 212 127 171 81 155 206 226 165 183 221 47 81 157 231 77 183 226 63 112 15 98 252 17 199 100 79 59 225 235 114 54 250 107 119 102 234 19 31 168 198 20 221 64 161 243 148 102 106 155 152 46 68 118 127 64 127 184 212 115 176 188 195 116 230 241 94 25 148 32 97 84 99 3 15 217 166 156 228 190 68 141 24 10 75 82 207 187 158 52 243 149 121 81 184 44 63 95 25 194 
21 91 249 33 54 248 17 121 249 202 142 180 116 112 206 254 99 85 26 232 209 154 10 120 236 90 144 224 41 40 2 37 17 106 99 169 100 153 133 166 73 245 96 139 208 197 39 254 186 235 42 121 182 85 0 115 186 111 94 27 205 81 175 186 57 50 188 55 241 165 158 5 245 47 60 182 207 95 66 102 134 85 149 219 172 247 138 63 113 130 254 15 233 61 189 177 63 173 110 16 
238 220 223 50 53 47 221 123 23 50 48 229 221 186 129 220 211 179 54 26 46 137 237 64 96 148 100 116 239 38 251 133 42 254 102 43 88 52 18 1 78 142 46 234 209 97 160 99 3 120 115 115 59 186 58 40 227 232 48 251 247 35 81 142 25 76 218 153 143 184 41 61 27 138 181 112 44 3 38 29 171 183 66 224 41 69 123 98 164 51 244 204 171 53 216 171 65 228 22 22 
243 177 96 241 193 252 111 202 244 250 213 19 247 5 193 104 15 144 75 88 145 55 233 31 99 238 147 140 140 160 91 83 178 89 73 5 197 225 234 61 13 144 146 128 251 85 147 152 193 198 77 83 174 116 188 74 122 251 48 38 166 72 173 191 112 236 192 185 102 102 173 128 38 98 197 130 207 64 70 235 226 119 152 125 211 74 80 194 80 178 153 5 133 156 171 240 86 130 217 138 
55 0 199 92 120 147 72 56 96 90 179 125 229 165 252 52 210 252 250 160 131 248 10 12 14 220 144 103 104 105 110 228 138 226 108 140 247 65 92 76 110 113 249 15 71 144 231 126 3 122 105 187 71 248 171 237 217 138 67 152 168 250 141 242 145 229 149 60 25 176 4 98 88 225 192 227 242 171 114 247 119 116 83 213 74 80 126 8 38 8 40 27 127 76 82 42 76 72 202 198 
154 153 140 247 33 47 150 161 252 181 59 194 244 192 68 110 141 74 113 224 109 73 108 80 109 28 232 140 232 161 156 225 123 163 162 197 40 24 135 137 80 36 101 205 24 70 14 67 183 15 171 1 232 58 104 241 145 96 43 38 153 194 23 130 135 23 253 21 7 77 224 153 103 127 67 233 194 231 155 2 162 151 252 43 209 167 192 210 85 129 229 54 196 144 158 39 77 158 158 100 
117 132 213 231 14 146 220 106 9 247 48 187 163 93 207 59 167 9 248 241 142 209 72 33 206 199 81 44 92 22 205 50 129 168 131 9 82 41 102 124 224 251 17 3 38 35 245 78 22 177 201 37 17 243 152 233 120 201 57 26 187 86 55 106 144 46 249 16 60 240 129 46 29 229 80 8 167 234 227 186 204 237 214 72 50 231 123 250 205 151 182 199 226 247 233 135 66 250 20 191 
186 74 162 163 5 0 107 187 58 61 163 133 19 236 63 116 183 98 69 147 210 119 187 40 31 23 218 48 251 85 193 253 156 84 211 252 207 160 223 246 233 80 138 59 44 36 152 69 122 212 164 4 120 158 140 62 213 52 122 3 175 178 12 147 123 249 247 128 69 21 125 168 197 72 165 122 188 137 35 182 64 17 174 178 182 235 107 150 174 82 140 242 213 215 116 84 158 136 40 45 
235 224 152 185 248 15 205 191 174 202 224 37 139 135 199 181 38 115 123 95 204 160 47 15 233 223 76 100 37 17 75 12 35 22 75 243 200 100 99 189 165 187 12 6 54 28 107 78 243 1 84 208 229 55 235 45 48 152 144 145 42 24 81 58 112 230 125 183 165 133 47 12 108 150 12 36 69 237 211 133 218 104 163 197 234 200 178 76 45 229 224 189 163 86 60 114 155 134 101 165 
157 192 140 0 153 156 191 45 88 139 43 97 204 84 8 22 180 60 254 74 54 238 166 223 24 191 181 237 58 116 242 227 114 144 89 73 202 221 160 183 170 68 9 204 13 96 43 61 173 96 188 213 37 206 194 99 214 70 188 253 18 58 165 197 123 29 117 113 114 142 173 46 160 145 156 110 133 103 225 129 45 89 249 219 199 22 38 25 169 163 85 134 150 157 239 59 36 120 189 215 
126 224 43 153 84 42 18 155 227 224 243 143 178 93 10 186 244 109 99 234 76 76 13 53 2 128 149 246 161 28 29 126 224 201 60 113 234 101 151 178 149 68 194 232 7 22 16 55 112 106 16 167 241 192 88 150 206 232 166 132 98 179 104 143 35 177 137 24 32 243 245 199 169 9 142 14 113 151 143 86 164 158 57 56 191 186 193 171 40 120 189 80 94 240 160 33 93 34 95 106 
192 19 201 9 223 31 75 28 117 15 178 143 250 16 250 242 14 15 224 165 76 157 122 138 129 220 189 106 148 5 185 25 197 119 218 150 147 46 176 19 231 183 168 97 194 108 84 75 175 139 96 239 190 29 68 168 151 170 206 106 53 151 92 71 108 245 246 201 47 14 225 4 122 20 95 87 173 115 193 164 105 144 81 58 148 237 137 208 180 178 125 119 49 20 16 90 254 227 60 224 
